<svg width="42" height="30" viewBox="0 0 42 30" fill="none" xmlns="http://www.w3.org/2000/svg">
<mask id="mask0_200_717" style="mask-type:alpha" maskUnits="userSpaceOnUse" x="0" y="0" width="42" height="30">
<path d="M41.55 2.56502C40.83 1.05005 39.285 0 37.5 0H4.5C2.71498 0 1.17 1.05 0.45 2.56502C0.165 3.15005 0 3.81005 0 4.5V25.5C0 27.975 2.02502 30 4.5 30H37.5C39.975 30 42 27.975 42 25.5V4.5C42 3.81 41.835 3.15 41.55 2.56502ZM36.6598 3.00002L22.0198 16.5149C21.4498 17.0399 20.5498 17.0399 19.9798 16.5149L5.33976 3.00002H36.6598ZM2.99976 4.92002L12.7495 13.92L3.08952 25.9949C3.02952 25.8449 2.99952 25.6799 2.99952 25.4999L2.99976 4.92002ZM6.11976 27L14.9546 15.9451L17.9546 18.7201C18.8096 19.5151 19.9046 19.9051 20.9997 19.9051C22.0947 19.9051 23.1897 19.5151 24.0447 18.7201L27.0447 15.9451L35.8796 27H6.11976ZM38.9998 25.5C38.9998 25.68 38.9698 25.845 38.9098 25.995L29.2498 13.9201L38.9995 4.92012L38.9998 25.5Z" fill="black"/>
</mask>
<g mask="url(#mask0_200_717)">
<rect y="-6" width="42" height="42" fill="url(#paint0_linear_200_717)"/>
</g>
<defs>
<linearGradient id="paint0_linear_200_717" x1="42" y1="-6" x2="0" y2="36" gradientUnits="userSpaceOnUse">
<stop stop-color="#00BCD4"/>
<stop offset="1" stop-color="#8E44AD"/>
</linearGradient>
</defs>
</svg>
