<svg width="33" height="33" viewBox="0 0 33 33" fill="none" xmlns="http://www.w3.org/2000/svg">
<mask id="mask0_125_840" style="mask-type:alpha" maskUnits="userSpaceOnUse" x="0" y="0" width="33" height="33">
<path fill-rule="evenodd" clip-rule="evenodd" d="M16.5132 0C7.65833 0 0.5 7.36134 0.5 16.4683C0.5 23.748 5.08659 29.9101 11.4494 32.0911C12.2449 32.255 12.5363 31.7367 12.5363 31.3007C12.5363 30.9189 12.5101 29.6103 12.5101 28.2468C8.0556 29.2285 7.12799 26.2836 7.12799 26.2836C6.41212 24.3751 5.35143 23.8845 5.35143 23.8845C3.89348 22.8757 5.45763 22.8757 5.45763 22.8757C7.07489 22.9848 7.9235 24.5661 7.9235 24.5661C9.35491 27.0743 11.6615 26.3656 12.5894 25.9293C12.7218 24.8659 13.1463 24.1298 13.597 23.7209C10.0442 23.3391 6.30625 21.9214 6.30625 15.5957C6.30625 13.7961 6.94214 12.3239 7.94973 11.1789C7.79075 10.77 7.23386 9.0792 8.10903 6.81626C8.10903 6.81626 9.46111 6.37994 12.5098 8.50669C13.815 8.14621 15.1611 7.96283 16.5132 7.96128C17.8653 7.96128 19.2436 8.15234 20.5164 8.50669C23.5654 6.37994 24.9175 6.81626 24.9175 6.81626C25.7926 9.0792 25.2354 10.77 25.0764 11.1789C26.1106 12.3239 26.7202 13.7961 26.7202 15.5957C26.7202 21.9214 22.9823 23.3117 19.4029 23.7209C19.9864 24.2389 20.4898 25.2203 20.4898 26.7745C20.4898 28.9829 20.4636 30.7553 20.4636 31.3004C20.4636 31.7367 20.7553 32.255 21.5505 32.0914C27.9133 29.9098 32.4999 23.748 32.4999 16.4683C32.5261 7.36134 25.3416 0 16.5132 0Z" fill="#24292F"/>
</mask>
<g mask="url(#mask0_125_840)">
<rect x="0.5" width="32.1222" height="32.1222" fill="url(#paint0_linear_125_840)"/>
</g>
<defs>
<linearGradient id="paint0_linear_125_840" x1="32.6222" y1="0" x2="0.499996" y2="32.1222" gradientUnits="userSpaceOnUse">
<stop offset="0.260345" stop-color="#00BCD4"/>
<stop offset="0.738776" stop-color="#8E44AD"/>
</linearGradient>
</defs>
</svg>
