<svg width="40" height="42" viewBox="0 0 40 42" fill="none" xmlns="http://www.w3.org/2000/svg">
<mask id="mask0_196_6796" style="mask-type:alpha" maskUnits="userSpaceOnUse" x="0" y="0" width="40" height="42">
<path d="M39.3167 15.4392C39.3066 12.783 38.3903 10.2098 36.7194 8.14511C37.2866 5.78449 37.1096 3.3062 36.2126 1.05015C36.1253 0.83577 35.9916 0.64341 35.821 0.486926C35.6504 0.330441 35.4473 0.213727 35.2262 0.145185C34.5927 -0.0720071 32.1946 -0.479244 27.3077 2.68815C25.206 2.13347 23.0377 1.87157 20.8644 1.90988C18.688 1.87109 16.5167 2.13298 14.4119 2.68815C9.3984 -0.551641 6.79208 -0.0267591 6.2672 0.127086C6.04489 0.198689 5.84117 0.31858 5.67063 0.478164C5.50009 0.637748 5.36697 0.833077 5.28079 1.05015C4.38159 3.29885 4.19829 5.77026 4.7559 8.12701C3.03035 10.1814 2.11049 12.793 2.16769 15.4754C2.16769 25.4843 7.89615 28.5069 13.145 29.5748C12.8755 30.2337 12.6901 30.9239 12.5929 31.6291C12.5835 31.7042 12.5835 31.7802 12.5929 31.8553V34.6245C7.8147 35.0227 6.79208 32.2263 6.69254 31.9096C6.66938 31.8358 6.64219 31.7633 6.61109 31.6924C5.68818 29.8094 4.06357 28.3635 2.08625 27.6653C1.68782 27.5321 1.25281 27.5626 0.876887 27.7501C0.500969 27.9377 0.214946 28.2669 0.0817391 28.6653C-0.051468 29.0637 -0.0209461 29.4987 0.166589 29.8746C0.354123 30.2506 0.683308 30.5366 1.08173 30.6698C2.17748 31.0657 3.09127 31.8475 3.65184 32.8689C4.28532 34.9231 6.87353 38.172 12.5748 37.81V40.4163C12.5748 40.8363 12.7417 41.2391 13.0387 41.5361C13.3357 41.8331 13.7385 42 14.1585 42C14.5786 42 14.9814 41.8331 15.2784 41.5361C15.5754 41.2391 15.7422 40.8363 15.7422 40.4163V31.9729C15.8624 31.0509 16.2637 30.1882 16.8915 29.5024C17.1115 29.2965 17.2677 29.0318 17.3418 28.7398C17.4158 28.4478 17.4046 28.1407 17.3093 27.8548C17.214 27.569 17.0388 27.3166 16.8043 27.1274C16.5699 26.9382 16.2861 26.8202 15.9866 26.7875C10.4663 26.1449 5.36223 24.326 5.36223 15.412C5.32554 14.336 5.51249 13.2641 5.91126 12.2641C6.31002 11.264 6.91194 10.3576 7.67895 9.60211C7.88522 9.38011 8.02773 9.10654 8.09145 8.81027C8.15516 8.51401 8.13771 8.20604 8.04094 7.91887C7.50781 6.36969 7.473 4.69249 7.94139 3.12253C9.88458 3.56125 11.7094 4.41653 13.2898 5.6293C13.4928 5.76369 13.7236 5.85057 13.9649 5.88347C14.2062 5.91638 14.4518 5.89446 14.6834 5.81934C16.6942 5.20732 18.7904 4.92314 20.8915 4.97772C22.9897 4.92301 25.0829 5.2072 27.0905 5.81934C27.3221 5.89512 27.5678 5.91738 27.8092 5.88447C28.0506 5.85155 28.2814 5.7643 28.4842 5.6293C30.0064 4.463 31.7487 3.61649 33.6063 3.14063C34.0677 4.72796 34.0266 6.41917 33.4887 7.98222C33.4001 8.24305 33.3819 8.52264 33.4359 8.79276C33.4899 9.06288 33.6143 9.31397 33.7964 9.52066C35.2945 11.1203 36.1431 13.2206 36.1764 15.412C36.1764 24.3079 30.81 26.154 25.5521 26.7875C25.2373 26.8225 24.9404 26.9516 24.7001 27.158C24.4599 27.3644 24.2874 27.6384 24.2053 27.9443C24.1232 28.2502 24.1353 28.5738 24.2399 28.8727C24.3446 29.1717 24.537 29.4321 24.7919 29.62C25.353 30.0454 26.0046 31.2399 26.0046 33.2399V40.4073C26.0046 40.8273 26.1714 41.2301 26.4684 41.5271C26.7654 41.8241 27.1682 41.9909 27.5883 41.9909C28.0083 41.9909 28.4111 41.8241 28.7081 41.5271C29.0051 41.2301 29.172 40.8273 29.172 40.4073V33.2399C29.1885 31.9796 28.9579 30.7283 28.4932 29.5567C32.7466 28.6517 39.3167 25.8554 39.3167 15.4392Z" fill="black"/>
</mask>
<g mask="url(#mask0_196_6796)">
<rect x="-1.80994" y="-0.904968" width="43.4385" height="43.4385" fill="url(#paint0_linear_196_6796)"/>
</g>
<defs>
<linearGradient id="paint0_linear_196_6796" x1="41.6286" y1="-0.904968" x2="-1.80994" y2="42.5335" gradientUnits="userSpaceOnUse">
<stop stop-color="#00BCD4"/>
<stop offset="1" stop-color="#8E44AD"/>
</linearGradient>
</defs>
</svg>
