<svg width="42" height="42" viewBox="0 0 42 42" fill="none" xmlns="http://www.w3.org/2000/svg">
<mask id="mask0_196_6825" style="mask-type:alpha" maskUnits="userSpaceOnUse" x="0" y="0" width="42" height="42">
<path d="M6.41667 0C2.8936 0 0 2.8936 0 6.41667V35.5833C0 39.1064 2.8936 42 6.41667 42H35.5833C39.1064 42 42 39.1064 42 35.5833V6.41667C42 2.8936 39.1064 0 35.5833 0H6.41667ZM6.41667 3.5H35.5833C37.2146 3.5 38.5 4.7854 38.5 6.41667V35.5833C38.5 37.2146 37.2146 38.5 35.5833 38.5H6.41667C4.7854 38.5 3.5 37.2146 3.5 35.5833V6.41667C3.5 4.7854 4.7854 3.5 6.41667 3.5ZM11.0833 8.16667C10.3098 8.16667 9.56792 8.47396 9.02094 9.02094C8.47396 9.56792 8.16667 10.3098 8.16667 11.0833C8.16667 11.8569 8.47396 12.5987 9.02094 13.1457C9.56792 13.6927 10.3098 14 11.0833 14C11.8569 14 12.5987 13.6927 13.1457 13.1457C13.6927 12.5987 14 11.8569 14 11.0833C14 10.3098 13.6927 9.56792 13.1457 9.02094C12.5987 8.47396 11.8569 8.16667 11.0833 8.16667ZM9.33333 16.3333C8.68817 16.3333 8.16667 16.8548 8.16667 17.5V32.6667C8.16667 33.3118 8.68817 33.8333 9.33333 33.8333H12.8333C13.4785 33.8333 14 33.3118 14 32.6667V17.5C14 16.8548 13.4785 16.3333 12.8333 16.3333H9.33333ZM17.5 16.3333C16.8548 16.3333 16.3333 16.8548 16.3333 17.5V32.6667C16.3333 33.3118 16.8548 33.8333 17.5 33.8333H21C21.6452 33.8333 22.1667 33.3118 22.1667 32.6667V23.9167C22.1667 22.3078 23.4745 21 25.0833 21C26.6922 21 28 22.3078 28 23.9167V32.6667C28 33.3118 28.5215 33.8333 29.1667 33.8333H32.6667C33.3118 33.8333 33.8333 33.3118 33.8333 32.6667V23.3333C33.8333 19.4728 30.6938 16.3333 26.8333 16.3333C25.039 16.3333 23.4068 17.017 22.1667 18.1312V17.5C22.1667 16.8548 21.6452 16.3333 21 16.3333H17.5Z" fill="black"/>
</mask>
<g mask="url(#mask0_196_6825)">
<rect width="42" height="42" fill="url(#paint0_linear_196_6825)"/>
</g>
<defs>
<linearGradient id="paint0_linear_196_6825" x1="42" y1="0" x2="0" y2="42" gradientUnits="userSpaceOnUse">
<stop stop-color="#00BCD4"/>
<stop offset="1" stop-color="#8E44AD"/>
</linearGradient>
</defs>
</svg>
