<svg width="33" height="33" viewBox="0 0 33 33" fill="none" xmlns="http://www.w3.org/2000/svg">
<mask id="mask0_125_841" style="mask-type:alpha" maskUnits="userSpaceOnUse" x="0" y="0" width="33" height="33">
<path d="M28.6905 0.0611649H4.30952C2.20667 0.0611649 0.5 1.76783 0.5 3.87069V28.2516C0.5 30.3545 2.20667 32.0612 4.30952 32.0612H28.6905C30.7933 32.0612 32.5 30.3545 32.5 28.2516V3.87069C32.5 1.76783 30.7933 0.0611649 28.6905 0.0611649ZM10.4048 12.2516V26.7278H5.83333V12.2516H10.4048ZM5.83333 8.03831C5.83333 6.97164 6.74762 6.1564 8.11905 6.1564C9.49048 6.1564 10.3514 6.97164 10.4048 8.03831C10.4048 9.10497 9.55143 9.96593 8.11905 9.96593C6.74762 9.96593 5.83333 9.10497 5.83333 8.03831ZM27.1667 26.7278H22.5952C22.5952 26.7278 22.5952 19.6726 22.5952 19.1088C22.5952 17.585 21.8333 16.0612 19.9286 16.0307H19.8676C18.0238 16.0307 17.2619 17.6002 17.2619 19.1088C17.2619 19.8021 17.2619 26.7278 17.2619 26.7278H12.6905V12.2516H17.2619V14.2021C17.2619 14.2021 18.7324 12.2516 21.6886 12.2516C24.7133 12.2516 27.1667 14.3316 27.1667 18.545V26.7278Z" fill="black"/>
</mask>
<g mask="url(#mask0_125_841)">
<rect x="0.5" y="0.0611649" width="32" height="32" fill="url(#paint0_linear_125_841)"/>
</g>
<defs>
<linearGradient id="paint0_linear_125_841" x1="32.5" y1="0.0611649" x2="0.5" y2="32.0612" gradientUnits="userSpaceOnUse">
<stop offset="0.260345" stop-color="#00BCD4"/>
<stop offset="0.738776" stop-color="#8E44AD"/>
</linearGradient>
</defs>
</svg>
